<?xml version="1.0" encoding="UTF-8" standalone="no"?>
<!DOCTYPE svg PUBLIC "-//W3C//DTD SVG 1.1//EN" "http://www.w3.org/Graphics/SVG/1.1/DTD/svg11.dtd">
<svg width="100%" height="100%" viewBox="0 0 12 12" version="1.1" xmlns="http://www.w3.org/2000/svg" xmlns:xlink="http://www.w3.org/1999/xlink" xml:space="preserve" xmlns:serif="http://www.serif.com/" style="fill-rule:evenodd;clip-rule:evenodd;stroke-linejoin:round;stroke-miterlimit:2;">
    <path d="M3,2L1,2C0.724,2 0.5,2.224 0.5,2.5C0.5,2.776 0.724,3 1,3L1.5,3L1.5,9.5C1.5,10.881 2.619,12 4,12C5.222,12 6.778,12 8,12C9.381,12 10.5,10.881 10.5,9.5L10.5,3L11,3C11.276,3 11.5,2.776 11.5,2.5C11.5,2.224 11.276,2 11,2L9,2L9,1.5C9,1.102 8.842,0.721 8.561,0.439C8.279,0.158 7.898,-0 7.5,0C6.629,0 5.371,-0 4.5,0C4.102,-0 3.721,0.158 3.439,0.439C3.158,0.721 3,1.102 3,1.5L3,2ZM9.5,3L2.5,3L2.5,9.5C2.5,10.328 3.172,11 4,11C4,11 8,11 8,11C8.828,11 9.5,10.328 9.5,9.5L9.5,3ZM8.001,2L8,1.5C8,1.367 7.947,1.24 7.854,1.146C7.76,1.053 7.633,1 7.5,1L4.5,1C4.367,1 4.24,1.053 4.146,1.146C4.053,1.24 4,1.367 4,1.5L4,2L8.001,2Z"/>
</svg>
