<?xml version="1.0" encoding="UTF-8" standalone="no"?>
<!DOCTYPE svg PUBLIC "-//W3C//DTD SVG 1.1//EN" "http://www.w3.org/Graphics/SVG/1.1/DTD/svg11.dtd">
<svg width="100%" height="100%" viewBox="0 0 12 12" version="1.1" xmlns="http://www.w3.org/2000/svg" xmlns:xlink="http://www.w3.org/1999/xlink" xml:space="preserve" xmlns:serif="http://www.serif.com/" style="fill-rule:evenodd;clip-rule:evenodd;stroke-linejoin:round;stroke-miterlimit:2;">
    <path d="M6,8.5C6.276,8.5 6.5,8.724 6.5,9C6.5,9.276 6.276,9.5 6,9.5C5.724,9.5 5.5,9.276 5.5,9C5.5,8.724 5.724,8.5 6,8.5ZM6,5.5C6.276,5.5 6.5,5.724 6.5,6C6.5,6.276 6.276,6.5 6,6.5C5.724,6.5 5.5,6.276 5.5,6C5.5,5.724 5.724,5.5 6,5.5ZM6,2.5C6.276,2.5 6.5,2.724 6.5,3C6.5,3.276 6.276,3.5 6,3.5C5.724,3.5 5.5,3.276 5.5,3C5.5,2.724 5.724,2.5 6,2.5Z"/>
</svg>
