<?xml version="1.0" encoding="UTF-8" standalone="no"?>
<!DOCTYPE svg PUBLIC "-//W3C//DTD SVG 1.1//EN" "http://www.w3.org/Graphics/SVG/1.1/DTD/svg11.dtd">
<svg width="100%" height="100%" viewBox="0 0 12 12" version="1.1" xmlns="http://www.w3.org/2000/svg" xmlns:xlink="http://www.w3.org/1999/xlink" xml:space="preserve" xmlns:serif="http://www.serif.com/" style="fill-rule:evenodd;clip-rule:evenodd;stroke-linejoin:round;stroke-miterlimit:2;">
    <path d="M9.094,10.547C8.212,11.148 7.147,11.5 6,11.5C2.964,11.5 0.5,9.036 0.5,6C0.5,2.964 2.964,0.5 6,0.5C9.036,0.5 11.5,2.964 11.5,6" style="fill:none;"/>
    <path d="M9,7.254L9,3.5C9,3.224 8.776,3 8.5,3C8.224,3 8,3.224 8,3.5L8,3.765C7.469,3.289 6.768,3 6,3C4.344,3 3,4.344 3,6C3,7.656 4.344,9 6,9C6.864,9 7.643,8.634 8.191,8.048C8.273,8.209 8.381,8.358 8.511,8.489C8.839,8.816 9.283,9 9.746,9C9.747,9 9.747,9 9.748,9C10.992,9 12,7.992 12,6.748L12,6C12,2.689 9.311,0 6,0C2.689,0 0,2.689 0,6C0,9.311 2.689,12 6,12C7.251,12 8.414,11.616 9.376,10.96C9.603,10.804 9.662,10.493 9.507,10.265C9.351,10.037 9.04,9.978 8.812,10.134C8.011,10.68 7.042,11 6,11C3.24,11 1,8.76 1,6C1,3.24 3.24,1 6,1C8.76,1 11,3.24 11,6C11,6.005 11,6.01 11,6.016L11,6.748C11,7.439 10.439,8 9.748,8C9.747,8 9.747,8 9.746,8C9.548,8 9.358,7.921 9.218,7.781C9.079,7.642 9,7.452 9,7.254ZM6,4C7.104,4 8,4.896 8,6C8,7.104 7.104,8 6,8C4.896,8 4,7.104 4,6C4,4.896 4.896,4 6,4Z"/>
</svg>
