<?xml version="1.0" encoding="UTF-8" standalone="no"?>
<!DOCTYPE svg PUBLIC "-//W3C//DTD SVG 1.1//EN" "http://www.w3.org/Graphics/SVG/1.1/DTD/svg11.dtd">
<svg width="100%" height="100%" viewBox="0 0 12 12" version="1.1" xmlns="http://www.w3.org/2000/svg" xmlns:xlink="http://www.w3.org/1999/xlink" xml:space="preserve" xmlns:serif="http://www.serif.com/" style="fill-rule:evenodd;clip-rule:evenodd;stroke-linejoin:round;stroke-miterlimit:2;">
    <path d="M5.5,11.5C5.5,11.776 5.724,12 6,12C6.276,12 6.5,11.776 6.5,11.5C6.5,11.5 6.524,10.183 7.854,8.854C9.474,7.233 10.5,6.519 10.5,4.5C10.5,2.016 8.484,0 6,0C3.516,0 1.5,2.016 1.5,4.5C1.5,6.519 2.526,7.233 4.146,8.854C5.476,10.183 5.5,11.5 5.5,11.5ZM6,9.712C5.756,9.227 5.393,8.686 4.854,8.146C4.261,7.554 3.748,7.1 3.345,6.649C2.815,6.056 2.5,5.472 2.5,4.5C2.5,2.568 4.068,1 6,1C7.932,1 9.5,2.568 9.5,4.5C9.5,5.472 9.185,6.056 8.655,6.649C8.252,7.1 7.739,7.554 7.146,8.146C6.607,8.686 6.244,9.227 6,9.712L6,9.712ZM6,2.5C4.896,2.5 4,3.396 4,4.5C4,5.604 4.896,6.5 6,6.5C7.104,6.5 8,5.604 8,4.5C8,3.396 7.104,2.5 6,2.5ZM6,3.5C6.552,3.5 7,3.948 7,4.5C7,5.052 6.552,5.5 6,5.5C5.448,5.5 5,5.052 5,4.5C5,3.948 5.448,3.5 6,3.5Z"/>
</svg>
