<?xml version="1.0" encoding="UTF-8" standalone="no"?>
<!DOCTYPE svg PUBLIC "-//W3C//DTD SVG 1.1//EN" "http://www.w3.org/Graphics/SVG/1.1/DTD/svg11.dtd">
<svg width="100%" height="100%" viewBox="0 0 12 12" version="1.1" xmlns="http://www.w3.org/2000/svg" xmlns:xlink="http://www.w3.org/1999/xlink" xml:space="preserve" xmlns:serif="http://www.serif.com/" style="fill-rule:evenodd;clip-rule:evenodd;stroke-linejoin:round;stroke-miterlimit:2;">
    <path d="M2.5,3.5C1.396,3.5 0.5,4.396 0.5,5.5L0.5,10C0.5,11.104 1.396,12 2.5,12L9.5,12C10.604,12 11.5,11.104 11.5,10L11.5,5.5C11.5,4.396 10.604,3.5 9.5,3.5L9.5,2.5C9.5,1.119 8.381,0 7,0L5,0C3.619,0 2.5,1.119 2.5,2.5L2.5,3.5ZM2.5,4.5L9.5,4.5C10.052,4.5 10.5,4.948 10.5,5.5L10.5,10C10.5,10.552 10.052,11 9.5,11C9.5,11 2.5,11 2.5,11C1.948,11 1.5,10.552 1.5,10L1.5,5.5C1.5,4.948 1.948,4.5 2.5,4.5ZM5.5,7.866L5.5,9.5C5.5,9.776 5.724,10 6,10C6.276,10 6.5,9.776 6.5,9.5L6.5,7.866C6.799,7.693 7,7.37 7,7C7,6.448 6.552,6 6,6C5.448,6 5,6.448 5,7C5,7.37 5.201,7.693 5.5,7.866ZM8.5,3.5L8.5,2.5C8.5,1.672 7.828,1 7,1C7,1 5,1 5,1C4.172,1 3.5,1.672 3.5,2.5L3.5,3.5L8.5,3.5Z"/>
</svg>
