<?xml version="1.0" encoding="UTF-8" standalone="no"?>
<!DOCTYPE svg PUBLIC "-//W3C//DTD SVG 1.1//EN" "http://www.w3.org/Graphics/SVG/1.1/DTD/svg11.dtd">
<svg width="100%" height="100%" viewBox="0 0 12 12" version="1.1" xmlns="http://www.w3.org/2000/svg" xmlns:xlink="http://www.w3.org/1999/xlink" xml:space="preserve" xmlns:serif="http://www.serif.com/" style="fill-rule:evenodd;clip-rule:evenodd;stroke-linejoin:round;stroke-miterlimit:2;">
    <path d="M8.591,9.298L11.146,11.854C11.342,12.049 11.658,12.049 11.854,11.854C12.049,11.658 12.049,11.342 11.854,11.146L9.298,8.591C10.049,7.683 10.5,6.519 10.5,5.25C10.5,2.352 8.148,0 5.25,0C2.352,0 0,2.352 0,5.25C0,8.148 2.352,10.5 5.25,10.5C6.519,10.5 7.683,10.049 8.591,9.298ZM5.25,1C7.596,1 9.5,2.904 9.5,5.25C9.5,7.596 7.596,9.5 5.25,9.5C2.904,9.5 1,7.596 1,5.25C1,2.904 2.904,1 5.25,1Z"/>
</svg>
