<?xml version="1.0" encoding="UTF-8" standalone="no"?>
<!DOCTYPE svg PUBLIC "-//W3C//DTD SVG 1.1//EN" "http://www.w3.org/Graphics/SVG/1.1/DTD/svg11.dtd">
<svg width="100%" height="100%" viewBox="0 0 10 10" version="1.1" xmlns="http://www.w3.org/2000/svg" xmlns:xlink="http://www.w3.org/1999/xlink" xml:space="preserve" xmlns:serif="http://www.serif.com/" style="fill-rule:evenodd;clip-rule:evenodd;stroke-linejoin:round;stroke-miterlimit:2;">
    <path d="M5,4.293L0.854,0.146C0.658,-0.049 0.342,-0.049 0.146,0.146C-0.049,0.342 -0.049,0.658 0.146,0.854L4.293,5L0.146,9.146C-0.049,9.342 -0.049,9.658 0.146,9.854C0.342,10.049 0.658,10.049 0.854,9.854L5,5.707L9.146,9.854C9.342,10.049 9.658,10.049 9.854,9.854C10.049,9.658 10.049,9.342 9.854,9.146L5.707,5L9.854,0.854C10.049,0.658 10.049,0.342 9.854,0.146C9.658,-0.049 9.342,-0.049 9.146,0.146L5,4.293Z"/>
</svg>
