<?xml version="1.0" encoding="UTF-8" standalone="no"?>
<!DOCTYPE svg PUBLIC "-//W3C//DTD SVG 1.1//EN" "http://www.w3.org/Graphics/SVG/1.1/DTD/svg11.dtd">
<svg width="100%" height="100%" viewBox="0 0 12 12" version="1.1" xmlns="http://www.w3.org/2000/svg" xmlns:xlink="http://www.w3.org/1999/xlink" xml:space="preserve" xmlns:serif="http://www.serif.com/" style="fill-rule:evenodd;clip-rule:evenodd;stroke-linejoin:round;stroke-miterlimit:2;">
    <path d="M4.5,7.652L4.5,8.153C4.5,8.397 4.323,8.606 4.082,8.646L3.589,8.728C2.384,8.929 1.5,9.972 1.5,11.194C1.5,11.36 1.5,11.475 1.5,11.496C1.5,11.966 2,12 2,12L10,12C10,12 10.5,11.966 10.5,11.496L10.5,11.194C10.5,9.972 9.616,8.929 8.411,8.728L7.918,8.646C7.677,8.606 7.5,8.397 7.5,8.153L7.5,7.649C8.419,6.907 9.474,5.606 9.497,3.533C9.519,1.616 7.98,0.042 6.063,0.021C4.146,-0.001 2.572,1.538 2.551,3.455C2.527,5.562 3.587,6.896 4.5,7.652ZM6.507,8.3C6.288,8.413 6.151,8.465 6.151,8.465C6.033,8.51 5.902,8.508 5.786,8.461C5.786,8.461 5.673,8.416 5.491,8.319C5.418,8.979 4.915,9.521 4.247,9.632C4.247,9.632 3.753,9.715 3.753,9.715C3.095,9.824 2.597,10.353 2.513,11L9.487,11C9.403,10.353 8.905,9.824 8.247,9.715C8.247,9.715 7.753,9.632 7.753,9.632C7.079,9.52 6.572,8.968 6.507,8.3ZM5.979,7.448C5.382,7.139 3.522,5.977 3.551,3.466C3.566,2.101 4.687,1.005 6.052,1.021C7.417,1.036 8.513,2.157 8.497,3.522C8.469,6.032 6.584,7.152 5.98,7.447L5.979,7.448Z"/>
</svg>
